<svg width="46" height="46" viewBox="0 0 46 46" fill="none" xmlns="http://www.w3.org/2000/svg">
<path d="M20.4167 6.3335H5.83333C4.72827 6.3335 3.66846 6.77248 2.88706 7.55388C2.10565 8.33529 1.66667 9.39509 1.66667 10.5002V39.6668C1.66667 40.7719 2.10565 41.8317 2.88706 42.6131C3.66846 43.3945 4.72827 43.8335 5.83333 43.8335H35C36.1051 43.8335 37.1649 43.3945 37.9463 42.6131C38.7277 41.8317 39.1667 40.7719 39.1667 39.6668V25.0835" stroke="#20A352" stroke-width="3" stroke-linecap="round" stroke-linejoin="round"/>
<path d="M36.0417 3.20848C36.8705 2.37968 37.9946 1.91406 39.1667 1.91406C40.3388 1.91406 41.4629 2.37968 42.2917 3.20848C43.1205 4.03728 43.5861 5.16138 43.5861 6.33348C43.5861 7.50558 43.1205 8.62968 42.2917 9.45848L22.5 29.2501L14.1667 31.3335L16.25 23.0001L36.0417 3.20848Z" stroke="#20A352" stroke-width="3" stroke-linecap="round" stroke-linejoin="round"/>
</svg>

