<svg width="45" height="46" viewBox="0 0 45 46" fill="none" xmlns="http://www.w3.org/2000/svg">
<path d="M10 16.7498V2.1665H35V16.7498" stroke="#20A352" stroke-width="3" stroke-linecap="round" stroke-linejoin="round"/>
<path d="M9.99999 35.5H5.83332C4.72825 35.5 3.66845 35.061 2.88704 34.2796C2.10564 33.4982 1.66666 32.4384 1.66666 31.3333V20.9167C1.66666 19.8116 2.10564 18.7518 2.88704 17.9704C3.66845 17.189 4.72825 16.75 5.83332 16.75H39.1667C40.2717 16.75 41.3315 17.189 42.1129 17.9704C42.8943 18.7518 43.3333 19.8116 43.3333 20.9167V31.3333C43.3333 32.4384 42.8943 33.4982 42.1129 34.2796C41.3315 35.061 40.2717 35.5 39.1667 35.5H35" stroke="#20A352" stroke-width="3" stroke-linecap="round" stroke-linejoin="round"/>
<path d="M35 27.1665H10V43.8332H35V27.1665Z" stroke="#20A352" stroke-width="3" stroke-linecap="round" stroke-linejoin="round"/>
</svg>
