<svg width="366" height="75" viewBox="0 0 366 75" fill="none" xmlns="http://www.w3.org/2000/svg">
<path d="M0.232955 74V63.8182H6.33807V64.9119H1.46591V68.3523H5.88068V69.446H1.46591V74H0.232955ZM10.8324 74.1591C10.143 74.1591 9.53812 73.995 9.01776 73.6669C8.50071 73.3388 8.09635 72.8797 7.80469 72.2898C7.51634 71.6998 7.37216 71.0104 7.37216 70.2216C7.37216 69.4261 7.51634 68.7318 7.80469 68.1385C8.09635 67.5452 8.50071 67.0845 9.01776 66.7564C9.53812 66.4283 10.143 66.2642 10.8324 66.2642C11.5218 66.2642 12.125 66.4283 12.642 66.7564C13.1624 67.0845 13.5668 67.5452 13.8551 68.1385C14.1468 68.7318 14.2926 69.4261 14.2926 70.2216C14.2926 71.0104 14.1468 71.6998 13.8551 72.2898C13.5668 72.8797 13.1624 73.3388 12.642 73.6669C12.125 73.995 11.5218 74.1591 10.8324 74.1591ZM10.8324 73.1051C11.3561 73.1051 11.7869 72.9709 12.125 72.7024C12.4631 72.4339 12.7133 72.081 12.8757 71.6435C13.0381 71.206 13.1193 70.732 13.1193 70.2216C13.1193 69.7112 13.0381 69.2356 12.8757 68.7947C12.7133 68.3539 12.4631 67.9976 12.125 67.7259C11.7869 67.4541 11.3561 67.3182 10.8324 67.3182C10.3087 67.3182 9.87784 67.4541 9.53977 67.7259C9.2017 67.9976 8.95147 68.3539 8.78906 68.7947C8.62666 69.2356 8.54545 69.7112 8.54545 70.2216C8.54545 70.732 8.62666 71.206 8.78906 71.6435C8.95147 72.081 9.2017 72.4339 9.53977 72.7024C9.87784 72.9709 10.3087 73.1051 10.8324 73.1051ZM16.0836 74V66.3636H17.2172V67.517H17.2967C17.4359 67.1392 17.6878 66.8326 18.0524 66.5973C18.417 66.362 18.8279 66.2443 19.2853 66.2443C19.3715 66.2443 19.4792 66.246 19.6085 66.2493C19.7377 66.2526 19.8355 66.2576 19.9018 66.2642V67.4574C19.862 67.4474 19.7709 67.4325 19.6284 67.4126C19.4892 67.3894 19.3417 67.3778 19.1859 67.3778C18.8147 67.3778 18.4833 67.4557 18.1916 67.6115C17.9032 67.764 17.6745 67.9761 17.5055 68.2479C17.3398 68.5163 17.2569 68.8229 17.2569 69.1676V74H16.0836ZM21.2926 74V66.3636H22.4261V67.5568H22.5256C22.6847 67.1491 22.9415 66.8326 23.2962 66.6072C23.6508 66.3786 24.0767 66.2642 24.5739 66.2642C25.0777 66.2642 25.4969 66.3786 25.8317 66.6072C26.1697 66.8326 26.4332 67.1491 26.6222 67.5568H26.7017C26.8973 67.1624 27.1906 66.8492 27.5817 66.6172C27.9728 66.3819 28.4418 66.2642 28.9886 66.2642C29.6714 66.2642 30.2299 66.478 30.6641 66.9055C31.0982 67.3298 31.3153 67.991 31.3153 68.8892V74H30.142V68.8892C30.142 68.3258 29.9879 67.9231 29.6797 67.6811C29.3714 67.4392 29.0085 67.3182 28.5909 67.3182C28.054 67.3182 27.638 67.4806 27.343 67.8054C27.0481 68.1269 26.9006 68.5346 26.9006 69.0284V74H25.7074V68.7699C25.7074 68.3357 25.5665 67.986 25.2848 67.7209C25.0031 67.4524 24.6402 67.3182 24.196 67.3182C23.8911 67.3182 23.6061 67.3994 23.3409 67.5618C23.0791 67.7242 22.867 67.9496 22.7045 68.2379C22.5455 68.523 22.4659 68.8527 22.4659 69.2273V74H21.2926ZM40.6992 74H37.5572V63.8182H40.8384C41.8261 63.8182 42.6713 64.022 43.3739 64.4297C44.0766 64.834 44.6152 65.4157 44.9897 66.1747C45.3642 66.9304 45.5515 67.8352 45.5515 68.8892C45.5515 69.9498 45.3626 70.8629 44.9847 71.6286C44.6069 72.3909 44.0567 72.9775 43.3342 73.3885C42.6116 73.7962 41.7333 74 40.6992 74ZM38.7901 72.9062H40.6197C41.4615 72.9062 42.1592 72.7438 42.7127 72.419C43.2662 72.0942 43.6789 71.6319 43.9506 71.032C44.2224 70.4321 44.3583 69.7178 44.3583 68.8892C44.3583 68.0672 44.2241 67.3596 43.9556 66.7663C43.6871 66.1697 43.2861 65.7124 42.7525 65.3942C42.2189 65.0727 41.5543 64.9119 40.7589 64.9119H38.7901V72.9062ZM50.6623 74.1591C49.9265 74.1591 49.2918 73.9967 48.7582 73.6719C48.2279 73.3438 47.8185 72.8864 47.5302 72.2997C47.2451 71.7098 47.1026 71.0237 47.1026 70.2415C47.1026 69.4593 47.2451 68.7699 47.5302 68.1733C47.8185 67.5734 48.2196 67.1061 48.7333 66.7713C49.2504 66.4332 49.8536 66.2642 50.543 66.2642C50.9407 66.2642 51.3335 66.3305 51.7212 66.4631C52.109 66.5956 52.462 66.8111 52.7802 67.1094C53.0984 67.4044 53.3519 67.7955 53.5408 68.2827C53.7298 68.7699 53.8242 69.3698 53.8242 70.0824V70.5795H47.9379V69.5653H52.631C52.631 69.1345 52.5449 68.75 52.3725 68.4119C52.2035 68.0739 51.9615 67.8071 51.6467 67.6115C51.3351 67.416 50.9672 67.3182 50.543 67.3182C50.0756 67.3182 49.6713 67.4342 49.3299 67.6662C48.9918 67.8949 48.7317 68.1932 48.5494 68.5611C48.3671 68.929 48.2759 69.3234 48.2759 69.7443V70.4205C48.2759 70.9972 48.3754 71.486 48.5742 71.8871C48.7764 72.2848 49.0565 72.5881 49.4144 72.7969C49.7724 73.0024 50.1883 73.1051 50.6623 73.1051C50.9705 73.1051 51.2489 73.062 51.4975 72.9759C51.7494 72.8864 51.9665 72.7538 52.1488 72.5781C52.3311 72.3991 52.4719 72.1771 52.5714 71.9119L53.7049 72.2301C53.5856 72.6146 53.3851 72.9527 53.1033 73.2443C52.8216 73.5327 52.4736 73.758 52.0593 73.9205C51.645 74.0795 51.1793 74.1591 50.6623 74.1591ZM58.93 66.3636V67.358H54.9727V66.3636H58.93ZM56.1261 64.5341H57.2994V71.8125C57.2994 72.1439 57.3474 72.3925 57.4435 72.5582C57.543 72.7206 57.6689 72.83 57.8214 72.8864C57.9772 72.9394 58.1412 72.9659 58.3136 72.9659C58.4428 72.9659 58.5489 72.9593 58.6317 72.946C58.7146 72.9295 58.7809 72.9162 58.8306 72.9062L59.0692 73.9602C58.9897 73.9901 58.8787 74.0199 58.7362 74.0497C58.5936 74.0829 58.413 74.0994 58.1942 74.0994C57.8628 74.0994 57.538 74.0282 57.2198 73.8857C56.9049 73.7431 56.6431 73.526 56.4343 73.2344C56.2288 72.9427 56.1261 72.5748 56.1261 72.1307V64.5341ZM62.9421 74.179C62.4582 74.179 62.0191 74.0878 61.6246 73.9055C61.2302 73.7199 60.917 73.4531 60.685 73.1051C60.453 72.7538 60.337 72.3295 60.337 71.8324C60.337 71.3949 60.4232 71.0402 60.5955 70.7685C60.7679 70.4934 60.9982 70.2779 61.2866 70.1222C61.5749 69.9664 61.8931 69.8504 62.2411 69.7741C62.5924 69.6946 62.9454 69.6316 63.3001 69.5852C63.7641 69.5256 64.1403 69.4808 64.4286 69.451C64.7203 69.4179 64.9324 69.3632 65.065 69.2869C65.2009 69.2107 65.2688 69.0781 65.2688 68.8892V68.8494C65.2688 68.3589 65.1346 67.9777 64.8661 67.706C64.601 67.4342 64.1983 67.2983 63.658 67.2983C63.0979 67.2983 62.6587 67.4209 62.3406 67.6662C62.0224 67.9115 61.7987 68.1733 61.6694 68.4517L60.5558 68.054C60.7546 67.59 61.0198 67.2287 61.3512 66.9702C61.686 66.7083 62.0505 66.526 62.445 66.4233C62.8427 66.3172 63.2338 66.2642 63.6183 66.2642C63.8635 66.2642 64.1452 66.294 64.4634 66.3537C64.7849 66.41 65.0948 66.5277 65.3931 66.7067C65.6947 66.8857 65.945 67.1558 66.1438 67.517C66.3427 67.8783 66.4421 68.3622 66.4421 68.9688V74H65.2688V72.9659H65.2092C65.1296 73.1316 64.997 73.3089 64.8114 73.4979C64.6258 73.6868 64.3789 73.8475 64.0707 73.9801C63.7624 74.1127 63.3862 74.179 62.9421 74.179ZM63.1211 73.125C63.5851 73.125 63.9762 73.0339 64.2944 72.8516C64.6159 72.6693 64.8578 72.4339 65.0202 72.1456C65.186 71.8572 65.2688 71.554 65.2688 71.2358V70.1619C65.2191 70.2216 65.1097 70.2763 64.9407 70.326C64.775 70.3724 64.5827 70.4138 64.364 70.4503C64.1486 70.4834 63.9381 70.5133 63.7326 70.5398C63.5304 70.563 63.3664 70.5829 63.2404 70.5994C62.9355 70.6392 62.6504 70.7038 62.3853 70.7933C62.1235 70.8795 61.9113 71.0104 61.7489 71.1861C61.5898 71.3584 61.5103 71.5937 61.5103 71.892C61.5103 72.2997 61.6611 72.608 61.9627 72.8168C62.2676 73.0223 62.6538 73.125 63.1211 73.125ZM68.5836 74V66.3636H69.7569V74H68.5836ZM69.1802 65.0909C68.9515 65.0909 68.7543 65.013 68.5886 64.8572C68.4262 64.7015 68.345 64.5142 68.345 64.2955C68.345 64.0767 68.4262 63.8894 68.5886 63.7337C68.7543 63.5779 68.9515 63.5 69.1802 63.5C69.4089 63.5 69.6045 63.5779 69.7669 63.7337C69.9326 63.8894 70.0154 64.0767 70.0154 64.2955C70.0154 64.5142 69.9326 64.7015 69.7669 64.8572C69.6045 65.013 69.4089 65.0909 69.1802 65.0909ZM73.0792 63.8182V74H71.9059V63.8182H73.0792ZM80.6373 68.0739L79.5833 68.3722C79.517 68.1965 79.4192 68.0258 79.29 67.8601C79.164 67.6911 78.9917 67.5518 78.7729 67.4425C78.5542 67.3331 78.2741 67.2784 77.9327 67.2784C77.4654 67.2784 77.0759 67.3861 76.7644 67.6016C76.4561 67.8137 76.302 68.0838 76.302 68.4119C76.302 68.7036 76.4081 68.9339 76.6202 69.103C76.8323 69.272 77.1638 69.4129 77.6145 69.5256L78.748 69.804C79.4308 69.9697 79.9396 70.2232 80.2743 70.5646C80.6091 70.9027 80.7765 71.3385 80.7765 71.8722C80.7765 72.3097 80.6505 72.7008 80.3986 73.0455C80.15 73.3902 79.802 73.6619 79.3546 73.8608C78.9071 74.0597 78.3868 74.1591 77.7935 74.1591C77.0146 74.1591 76.37 73.9901 75.8596 73.652C75.3491 73.3139 75.026 72.8201 74.8901 72.1705L76.0037 71.892C76.1098 72.303 76.3103 72.6113 76.6053 72.8168C76.9036 73.0223 77.293 73.125 77.7736 73.125C78.3205 73.125 78.7547 73.009 79.0762 72.777C79.401 72.5417 79.5634 72.2599 79.5634 71.9318C79.5634 71.6667 79.4706 71.4446 79.285 71.2656C79.0994 71.0833 78.8143 70.9474 78.4299 70.858L77.1571 70.5597C76.4578 70.3939 75.9441 70.1371 75.6159 69.7891C75.2911 69.4377 75.1287 68.9986 75.1287 68.4716C75.1287 68.0407 75.2497 67.6596 75.4917 67.3281C75.7369 66.9967 76.07 66.7365 76.4909 66.5476C76.9152 66.3587 77.3958 66.2642 77.9327 66.2642C78.6884 66.2642 79.2817 66.4299 79.7125 66.7614C80.1467 67.0928 80.455 67.5303 80.6373 68.0739Z" fill="#111111"/>
<path d="M165.233 74V63.8182H168.673C169.472 63.8182 170.125 63.9624 170.632 64.2507C171.143 64.5357 171.52 64.9219 171.766 65.4091C172.011 65.8963 172.134 66.4399 172.134 67.0398C172.134 67.6397 172.011 68.1849 171.766 68.6754C171.524 69.166 171.149 69.5571 170.642 69.8487C170.135 70.1371 169.485 70.2812 168.693 70.2812H166.227V69.1875H168.653C169.2 69.1875 169.639 69.093 169.971 68.9041C170.302 68.7152 170.543 68.46 170.692 68.1385C170.844 67.8137 170.92 67.4474 170.92 67.0398C170.92 66.6321 170.844 66.2675 170.692 65.946C170.543 65.6245 170.301 65.3726 169.966 65.1903C169.631 65.0047 169.187 64.9119 168.634 64.9119H166.466V74H165.233ZM173.961 74V66.3636H175.094V67.517H175.174C175.313 67.1392 175.565 66.8326 175.929 66.5973C176.294 66.362 176.705 66.2443 177.162 66.2443C177.248 66.2443 177.356 66.246 177.485 66.2493C177.615 66.2526 177.712 66.2576 177.779 66.2642V67.4574C177.739 67.4474 177.648 67.4325 177.505 67.4126C177.366 67.3894 177.219 67.3778 177.063 67.3778C176.692 67.3778 176.36 67.4557 176.069 67.6115C175.78 67.764 175.551 67.9761 175.382 68.2479C175.217 68.5163 175.134 68.8229 175.134 69.1676V74H173.961ZM182.139 74.1591C181.403 74.1591 180.768 73.9967 180.235 73.6719C179.704 73.3438 179.295 72.8864 179.007 72.2997C178.722 71.7098 178.579 71.0237 178.579 70.2415C178.579 69.4593 178.722 68.7699 179.007 68.1733C179.295 67.5734 179.696 67.1061 180.21 66.7713C180.727 66.4332 181.33 66.2642 182.02 66.2642C182.417 66.2642 182.81 66.3305 183.198 66.4631C183.586 66.5956 183.939 66.8111 184.257 67.1094C184.575 67.4044 184.828 67.7955 185.017 68.2827C185.206 68.7699 185.301 69.3698 185.301 70.0824V70.5795H179.414V69.5653H184.108C184.108 69.1345 184.021 68.75 183.849 68.4119C183.68 68.0739 183.438 67.8071 183.123 67.6115C182.812 67.416 182.444 67.3182 182.02 67.3182C181.552 67.3182 181.148 67.4342 180.806 67.6662C180.468 67.8949 180.208 68.1932 180.026 68.5611C179.844 68.929 179.752 69.3234 179.752 69.7443V70.4205C179.752 70.9972 179.852 71.486 180.051 71.8871C180.253 72.2848 180.533 72.5881 180.891 72.7969C181.249 73.0024 181.665 73.1051 182.139 73.1051C182.447 73.1051 182.725 73.062 182.974 72.9759C183.226 72.8864 183.443 72.7538 183.625 72.5781C183.808 72.3991 183.949 72.1771 184.048 71.9119L185.181 72.2301C185.062 72.6146 184.862 72.9527 184.58 73.2443C184.298 73.5327 183.95 73.758 183.536 73.9205C183.122 74.0795 182.656 74.1591 182.139 74.1591ZM193.097 66.3636L190.274 74H189.08L186.257 66.3636H187.529L189.637 72.4489H189.717L191.825 66.3636H193.097ZM194.646 74V66.3636H195.819V74H194.646ZM195.243 65.0909C195.014 65.0909 194.817 65.013 194.651 64.8572C194.489 64.7015 194.407 64.5142 194.407 64.2955C194.407 64.0767 194.489 63.8894 194.651 63.7337C194.817 63.5779 195.014 63.5 195.243 63.5C195.471 63.5 195.667 63.5779 195.829 63.7337C195.995 63.8894 196.078 64.0767 196.078 64.2955C196.078 64.5142 195.995 64.7015 195.829 64.8572C195.667 65.013 195.471 65.0909 195.243 65.0909ZM201.17 74.1591C200.434 74.1591 199.8 73.9967 199.266 73.6719C198.736 73.3438 198.326 72.8864 198.038 72.2997C197.753 71.7098 197.61 71.0237 197.61 70.2415C197.61 69.4593 197.753 68.7699 198.038 68.1733C198.326 67.5734 198.727 67.1061 199.241 66.7713C199.758 66.4332 200.361 66.2642 201.051 66.2642C201.449 66.2642 201.841 66.3305 202.229 66.4631C202.617 66.5956 202.97 66.8111 203.288 67.1094C203.606 67.4044 203.86 67.7955 204.049 68.2827C204.238 68.7699 204.332 69.3698 204.332 70.0824V70.5795H198.446V69.5653H203.139C203.139 69.1345 203.053 68.75 202.88 68.4119C202.711 68.0739 202.469 67.8071 202.154 67.6115C201.843 67.416 201.475 67.3182 201.051 67.3182C200.583 67.3182 200.179 67.4342 199.838 67.6662C199.5 67.8949 199.239 68.1932 199.057 68.5611C198.875 68.929 198.784 69.3234 198.784 69.7443V70.4205C198.784 70.9972 198.883 71.486 199.082 71.8871C199.284 72.2848 199.564 72.5881 199.922 72.7969C200.28 73.0024 200.696 73.1051 201.17 73.1051C201.478 73.1051 201.757 73.062 202.005 72.9759C202.257 72.8864 202.474 72.7538 202.657 72.5781C202.839 72.3991 202.98 72.1771 203.079 71.9119L204.213 72.2301C204.093 72.6146 203.893 72.9527 203.611 73.2443C203.329 73.5327 202.981 73.758 202.567 73.9205C202.153 74.0795 201.687 74.1591 201.17 74.1591ZM207.847 74L205.52 66.3636H206.753L208.404 72.2102H208.483L210.114 66.3636H211.367L212.978 72.1903H213.057L214.708 66.3636H215.941L213.614 74H212.461L210.79 68.1335H210.671L209 74H207.847Z" fill="#111111"/>
<path d="M324.801 66.3636C324.741 65.8598 324.5 65.4688 324.075 65.1903C323.651 64.9119 323.131 64.7727 322.514 64.7727C322.063 64.7727 321.669 64.8456 321.331 64.9915C320.996 65.1373 320.734 65.3378 320.545 65.593C320.36 65.8482 320.267 66.1383 320.267 66.4631C320.267 66.7348 320.332 66.9685 320.461 67.1641C320.594 67.3563 320.763 67.517 320.968 67.6463C321.174 67.7723 321.389 67.8767 321.614 67.9595C321.84 68.0391 322.047 68.1037 322.236 68.1534L323.27 68.4318C323.535 68.5014 323.83 68.5975 324.155 68.7202C324.483 68.8428 324.796 69.0102 325.094 69.2223C325.396 69.4311 325.645 69.6996 325.84 70.0277C326.036 70.3558 326.134 70.7585 326.134 71.2358C326.134 71.786 325.989 72.2831 325.701 72.7273C325.416 73.1714 324.998 73.5244 324.448 73.7862C323.901 74.0481 323.237 74.179 322.455 74.179C321.725 74.179 321.094 74.0613 320.56 73.826C320.03 73.5907 319.612 73.2625 319.308 72.8416C319.006 72.4207 318.835 71.9318 318.795 71.375H320.068C320.101 71.7595 320.231 72.0777 320.456 72.3295C320.685 72.5781 320.973 72.7637 321.321 72.8864C321.672 73.0057 322.05 73.0653 322.455 73.0653C322.925 73.0653 323.348 72.9891 323.722 72.8366C324.097 72.6809 324.393 72.4654 324.612 72.1903C324.831 71.9119 324.94 71.5871 324.94 71.2159C324.94 70.8778 324.846 70.6027 324.657 70.3906C324.468 70.1785 324.219 70.0062 323.911 69.8736C323.603 69.741 323.27 69.625 322.912 69.5256L321.659 69.1676C320.864 68.9389 320.234 68.6125 319.77 68.1882C319.306 67.764 319.074 67.2088 319.074 66.5227C319.074 65.9527 319.228 65.4555 319.536 65.0312C319.848 64.6037 320.265 64.2723 320.789 64.0369C321.316 63.7983 321.904 63.679 322.554 63.679C323.21 63.679 323.794 63.7966 324.304 64.032C324.814 64.264 325.219 64.5821 325.517 64.9865C325.819 65.3909 325.978 65.8499 325.994 66.3636H324.801ZM332.814 70.8778V66.3636H333.987V74H332.814V72.7074H332.735C332.556 73.0952 332.277 73.425 331.899 73.6967C331.521 73.9652 331.044 74.0994 330.468 74.0994C329.99 74.0994 329.566 73.995 329.195 73.7862C328.824 73.5741 328.532 73.2559 328.32 72.8317C328.108 72.4041 328.002 71.8655 328.002 71.2159V66.3636H329.175V71.1364C329.175 71.6932 329.331 72.1373 329.642 72.4688C329.957 72.8002 330.358 72.9659 330.845 72.9659C331.137 72.9659 331.434 72.8913 331.735 72.7422C332.04 72.593 332.295 72.3643 332.501 72.0561C332.71 71.7479 332.814 71.3551 332.814 70.8778ZM336.295 74V63.8182H337.469V67.5767H337.568C337.654 67.4441 337.774 67.2751 337.926 67.0696C338.082 66.8608 338.304 66.6752 338.592 66.5128C338.884 66.3471 339.278 66.2642 339.776 66.2642C340.419 66.2642 340.985 66.425 341.476 66.7464C341.966 67.0679 342.349 67.5237 342.624 68.1136C342.899 68.7036 343.037 69.3996 343.037 70.2017C343.037 71.0104 342.899 71.7114 342.624 72.3047C342.349 72.8946 341.968 73.352 341.481 73.6768C340.994 73.9983 340.432 74.1591 339.795 74.1591C339.305 74.1591 338.912 74.0779 338.617 73.9155C338.322 73.7498 338.095 73.5625 337.936 73.3537C337.777 73.1416 337.654 72.9659 337.568 72.8267H337.429V74H336.295ZM337.449 70.1818C337.449 70.7585 337.533 71.2673 337.702 71.7081C337.871 72.1456 338.118 72.4886 338.443 72.7372C338.768 72.9825 339.166 73.1051 339.636 73.1051C340.127 73.1051 340.536 72.9759 340.864 72.7173C341.196 72.4555 341.444 72.1042 341.61 71.6634C341.779 71.2192 341.864 70.7254 341.864 70.1818C341.864 69.6449 341.781 69.161 341.615 68.7301C341.453 68.2959 341.206 67.9529 340.874 67.701C340.546 67.4458 340.134 67.3182 339.636 67.3182C339.159 67.3182 338.758 67.4392 338.433 67.6811C338.108 67.9197 337.863 68.2545 337.697 68.6854C337.532 69.1129 337.449 69.6117 337.449 70.1818ZM344.832 74V66.3636H345.965V67.5568H346.065C346.224 67.1491 346.481 66.8326 346.835 66.6072C347.19 66.3786 347.616 66.2642 348.113 66.2642C348.617 66.2642 349.036 66.3786 349.371 66.6072C349.709 66.8326 349.972 67.1491 350.161 67.5568H350.241C350.436 67.1624 350.73 66.8492 351.121 66.6172C351.512 66.3819 351.981 66.2642 352.528 66.2642C353.21 66.2642 353.769 66.478 354.203 66.9055C354.637 67.3298 354.854 67.991 354.854 68.8892V74H353.681V68.8892C353.681 68.3258 353.527 67.9231 353.219 67.6811C352.911 67.4392 352.548 67.3182 352.13 67.3182C351.593 67.3182 351.177 67.4806 350.882 67.8054C350.587 68.1269 350.44 68.5346 350.44 69.0284V74H349.246V68.7699C349.246 68.3357 349.106 67.986 348.824 67.7209C348.542 67.4524 348.179 67.3182 347.735 67.3182C347.43 67.3182 347.145 67.3994 346.88 67.5618C346.618 67.7242 346.406 67.9496 346.244 68.2379C346.085 68.523 346.005 68.8527 346.005 69.2273V74H344.832ZM357 74V66.3636H358.173V74H357ZM357.596 65.0909C357.368 65.0909 357.17 65.013 357.005 64.8572C356.842 64.7015 356.761 64.5142 356.761 64.2955C356.761 64.0767 356.842 63.8894 357.005 63.7337C357.17 63.5779 357.368 63.5 357.596 63.5C357.825 63.5 358.02 63.5779 358.183 63.7337C358.349 63.8894 358.431 64.0767 358.431 64.2955C358.431 64.5142 358.349 64.7015 358.183 64.8572C358.02 65.013 357.825 65.0909 357.596 65.0909ZM363.643 66.3636V67.358H359.686V66.3636H363.643ZM360.839 64.5341H362.012V71.8125C362.012 72.1439 362.06 72.3925 362.156 72.5582C362.256 72.7206 362.382 72.83 362.534 72.8864C362.69 72.9394 362.854 72.9659 363.026 72.9659C363.156 72.9659 363.262 72.9593 363.345 72.946C363.427 72.9295 363.494 72.9162 363.544 72.9062L363.782 73.9602C363.703 73.9901 363.592 74.0199 363.449 74.0497C363.307 74.0829 363.126 74.0994 362.907 74.0994C362.576 74.0994 362.251 74.0282 361.933 73.8857C361.618 73.7431 361.356 73.526 361.147 73.2344C360.942 72.9427 360.839 72.5748 360.839 72.1307V64.5341Z" fill="#111111"/>
<circle cx="41" cy="25" r="25" fill="#20A352"/>
<circle cx="191" cy="25" r="25" fill="#20A352"/>
<circle cx="341" cy="25" r="25" fill="#20A352" fill-opacity="0.2"/>
<path d="M44.0085 16.5455V34H40.3182V20.0483H40.2159L36.2188 22.554V19.2812L40.5398 16.5455H44.0085Z" fill="white"/>
<line x1="66" y1="24.5" x2="166" y2="24.5" stroke="#20A352"/>
<line x1="216" y1="24.5" x2="316" y2="24.5" stroke="#20A352"/>
<path d="M184.415 34V31.3409L190.628 25.5881C191.156 25.0767 191.599 24.6165 191.957 24.2074C192.321 23.7983 192.597 23.3977 192.784 23.0057C192.972 22.608 193.065 22.179 193.065 21.7188C193.065 21.2074 192.949 20.767 192.716 20.3977C192.483 20.0227 192.165 19.7358 191.761 19.5369C191.358 19.3324 190.901 19.2301 190.389 19.2301C189.855 19.2301 189.389 19.3381 188.991 19.554C188.594 19.7699 188.287 20.0795 188.071 20.483C187.855 20.8864 187.747 21.3665 187.747 21.9233H184.244C184.244 20.7812 184.503 19.7898 185.02 18.9489C185.537 18.108 186.261 17.4574 187.193 16.9972C188.125 16.5369 189.199 16.3068 190.415 16.3068C191.665 16.3068 192.753 16.5284 193.679 16.9716C194.611 17.4091 195.335 18.017 195.852 18.7955C196.369 19.5739 196.628 20.4659 196.628 21.4716C196.628 22.1307 196.497 22.7812 196.236 23.4233C195.98 24.0653 195.523 24.7784 194.864 25.5625C194.205 26.3409 193.276 27.2756 192.077 28.3665L189.528 30.8636V30.983H196.858V34H184.415Z" fill="white"/>
<path d="M340.866 34.2386C339.594 34.2386 338.46 34.0199 337.466 33.5824C336.477 33.1392 335.696 32.5312 335.122 31.7585C334.554 30.9801 334.261 30.0824 334.244 29.0653H337.96C337.983 29.4915 338.122 29.8665 338.378 30.1903C338.639 30.5085 338.986 30.7557 339.418 30.9318C339.849 31.108 340.335 31.196 340.875 31.196C341.438 31.196 341.935 31.0966 342.366 30.8977C342.798 30.6989 343.136 30.4233 343.381 30.071C343.625 29.7187 343.747 29.3125 343.747 28.8523C343.747 28.3864 343.616 27.9744 343.355 27.6165C343.099 27.2528 342.73 26.9687 342.247 26.7642C341.77 26.5597 341.202 26.4574 340.543 26.4574H338.915V23.7472H340.543C341.099 23.7472 341.591 23.6506 342.017 23.4574C342.449 23.2642 342.784 22.9972 343.023 22.6562C343.261 22.3097 343.381 21.9062 343.381 21.446C343.381 21.0085 343.276 20.625 343.065 20.2955C342.861 19.9602 342.571 19.6989 342.196 19.5114C341.827 19.3239 341.395 19.2301 340.901 19.2301C340.401 19.2301 339.943 19.321 339.528 19.5028C339.114 19.679 338.781 19.9318 338.531 20.2614C338.281 20.5909 338.148 20.9773 338.131 21.4205H334.594C334.611 20.4148 334.898 19.5284 335.455 18.7614C336.011 17.9943 336.761 17.3949 337.705 16.9631C338.653 16.5256 339.724 16.3068 340.918 16.3068C342.122 16.3068 343.176 16.5256 344.08 16.9631C344.983 17.4006 345.685 17.9915 346.185 18.7358C346.69 19.4744 346.94 20.304 346.935 21.2244C346.94 22.2017 346.636 23.017 346.023 23.6705C345.415 24.3239 344.622 24.7386 343.645 24.9148V25.0511C344.929 25.2159 345.906 25.6619 346.577 26.3892C347.253 27.1108 347.588 28.0142 347.582 29.0994C347.588 30.0938 347.301 30.9773 346.722 31.75C346.148 32.5227 345.355 33.1307 344.344 33.5739C343.332 34.017 342.173 34.2386 340.866 34.2386Z" fill="white"/>
</svg>
