<svg width="22" height="20" viewBox="0 0 22 20" fill="none" xmlns="http://www.w3.org/2000/svg">
<path d="M1 10.61H18" stroke="white" stroke-opacity="0.8" stroke-width="1.5" stroke-miterlimit="10" stroke-linecap="round" stroke-linejoin="round"/>
<path d="M18 8.28005V15.43C17.97 18.28 17.19 19 14.22 19H4.78003C1.76003 19 1 18.2501 1 15.2701V8.28005C1 5.58005 1.63 4.71005 4 4.57005C4.24 4.56005 4.50003 4.55005 4.78003 4.55005H14.22C17.24 4.55005 18 5.30005 18 8.28005Z" stroke="white" stroke-opacity="0.8" stroke-width="1.5" stroke-linecap="round" stroke-linejoin="round"/>
<path d="M21 4.73V11.72C21 14.42 20.37 15.29 18 15.43V8.28C18 5.3 17.24 4.55 14.22 4.55H4.78003C4.50003 4.55 4.24 4.56 4 4.57C4.03 1.72 4.81003 1 7.78003 1H17.22C20.24 1 21 1.75 21 4.73Z" stroke="white" stroke-opacity="0.8" stroke-width="1.5" stroke-linecap="round" stroke-linejoin="round"/>
<path d="M4.25 15.8101H5.96997" stroke="white" stroke-opacity="0.8" stroke-width="1.5" stroke-miterlimit="10" stroke-linecap="round" stroke-linejoin="round"/>
<path d="M8.11035 15.8101H11.5504" stroke="white" stroke-opacity="0.8" stroke-width="1.5" stroke-miterlimit="10" stroke-linecap="round" stroke-linejoin="round"/>
</svg>
